<svg xmlns="http://www.w3.org/2000/svg" viewBox="0 0 374.94 374.78"><g id="Layer_2" data-name="Layer 2"><g id="Layer_1-2" data-name="Layer 1"><path d="M374.94,186.82c.44,103.14-82.75,187.13-186.17,188C85.05,375.6.4,291.81,0,187.92-.4,84.78,82.91.7,186.17,0A187.27,187.27,0,0,1,374.94,186.82Zm-86-18.84C277,108.54,229.22,76.41,170.13,85.56c-54,8.37-90.31,57.68-84.44,114.66,5.56,54,52.2,92.73,108.56,90.25,50.78-2.24,93.18-40.74,93.5-86.32-15.38,0-30.82-.53-46.18.39-3.59.21-8.18,4.65-10.11,8.31-6.65,12.6-15.74,21.91-29.78,25.46-24.65,6.22-47.62-6.14-56.47-30.1-10-26.94.58-57.41,23.76-68.78,22.69-11.12,47.19-2.94,61.85,20.23,2.13,3.36,6,7.78,9.19,8C255.82,168.43,271.69,168,288.94,168Z"/></g></g></svg>