<svg xmlns="http://www.w3.org/2000/svg" viewBox="0 0 26.78 32.71"><g id="Layer_2" data-name="Layer 2"><g id="Layer_1-2" data-name="Layer 1"><path d="M6.85,13.75c-.55,0-1.1,0-1.65,0a2.08,2.08,0,0,1-.79-.12c-.18-.07-.42-.26-.44-.42a.6.6,0,0,1,.37-.48A22.16,22.16,0,0,1,7.09,12a13,13,0,0,1,5.34.13,7.43,7.43,0,0,1,2,.78,2.27,2.27,0,0,1,1,3,9.7,9.7,0,0,1-1.84,2.95,19.34,19.34,0,0,1-7.42,5c-1.25.51-2.56.87-3.85,1.27a2.59,2.59,0,0,1-.79.05C1,25.17.85,25,1,24.57a11.92,11.92,0,0,1,.64-1.52A48.75,48.75,0,0,1,6,16.21a10.37,10.37,0,0,1,.88-1A1.1,1.1,0,0,1,7.37,15c.36-.08.59.13.52.49a4,4,0,0,1-.38,1c-.71,1.3-1.45,2.59-2.16,3.9A6.32,6.32,0,0,0,5,21.49c-.1.35,0,.51.39.43a6.09,6.09,0,0,0,1.36-.47,12.72,12.72,0,0,0,5.22-4.39,3.85,3.85,0,0,0,.47-1.1,1.18,1.18,0,0,0-.74-1.54,11.19,11.19,0,0,0-2.28-.57c-.83-.11-1.68-.1-2.52-.14ZM4.18,13v.21a3,3,0,0,0,.42,0c1.66.08,3.29-.36,5-.19a10.3,10.3,0,0,1,2.7.56,2.05,2.05,0,0,1,1.28,1.13c.08.23.24.25.4.09.34-.35.66-.72,1-1.1a4.66,4.66,0,0,0-2.43-1.34A14.87,14.87,0,0,0,6,12.49C5.37,12.62,4.78,12.82,4.18,13Z"/><path d="M19.41,22.61c-1.7-.19-3.4-.37-5.1-.58a2,2,0,0,1-.79-.26.63.63,0,0,1-.3-.49.64.64,0,0,1,.42-.41,3.39,3.39,0,0,1,.91-.13c1.25-.06,2.51-.09,3.76-.18a23.19,23.19,0,0,0,2.78-.33c.86-.17,1.1-.69.65-1.45a22.64,22.64,0,0,0-1.45-2l-3.07-3.95-.07-.11a2.45,2.45,0,0,1,1.32-3.81,8.17,8.17,0,0,1,3.82-.53c1.07.1,2.15.24,3.22.41a3,3,0,0,1,1,.41.64.64,0,0,1,.24.5c0,.12-.25.28-.41.31-.49.08-1,.13-1.47.17-1.32.09-2.65.12-4,.25-1,.1-1.31.72-.87,1.56a11.83,11.83,0,0,0,1.27,1.79c.94,1.16,1.92,2.27,2.84,3.44a3.8,3.8,0,0,1,1,2.24,2.37,2.37,0,0,1-1.7,2.37,12.16,12.16,0,0,1-2.33.55,16.38,16.38,0,0,1-1.72.13Zm.63-7c.22-.45.39-.8.57-1.14a.7.7,0,0,0-.13-.88c-.24-.26-.43-.57-.65-.85a1.22,1.22,0,0,0-.23-.27A1.63,1.63,0,0,1,19,11c.07-.62.53-.89,1.07-1.06a3.34,3.34,0,0,1,.43-.1c.68,0,1.36-.09,2-.16.14,0,.36-.11.4-.23a.55.55,0,0,0-.5-.76,8.31,8.31,0,0,0-4.23.7,1.93,1.93,0,0,0-1,2.83,7.06,7.06,0,0,0,1,1.44C18.77,14.27,19.38,14.89,20,15.62Z"/><path d="M11.36,1.8c-.39,0-.78,0-1.16-.07s-.63-.14-.59-.47a.77.77,0,0,1,.48-.5A20.87,20.87,0,0,1,12.55.19a11.6,11.6,0,0,1,4.51.06,7.47,7.47,0,0,1,2,.77A2,2,0,0,1,20,3.3,5.67,5.67,0,0,1,18.57,6,19.65,19.65,0,0,1,12,10.72a2.5,2.5,0,0,1-.88.27.7.7,0,0,1-.57-.2.69.69,0,0,1,.16-.6c.35-.36.75-.68,1.14-1,1.17-1,2.37-1.95,3.51-3a12.14,12.14,0,0,0,1.33-1.6,2.31,2.31,0,0,0,.28-.48c.4-.88.21-1.45-.71-1.72a19.06,19.06,0,0,0-2.71-.52c-.71-.1-1.44-.08-2.16-.11Zm-1.5-.66,0,.2c2.3,0,4.61-.41,6.92.12C16.52,1,16.17.4,15.63.36a12.77,12.77,0,0,0-5.35.58A3.23,3.23,0,0,0,9.86,1.14Z"/><path d="M23.39,31.28h-1a.38.38,0,0,0-.44.36,1.33,1.33,0,0,0-.05.19c-.18.85-.29.92-1.16.8-.29,0-.4-.18-.34-.46.18-.83.35-1.65.54-2.48a2.38,2.38,0,0,1,2.15-1.92,5.27,5.27,0,0,1,2.27,0,1.37,1.37,0,0,1,1.16,1.59A26.61,26.61,0,0,1,26,32.31a.48.48,0,0,1-.32.3c-.91.23-1.15,0-1-.87.08-.38-.05-.49-.4-.46s-.59,0-.88,0Zm.17-.9h.93c.27,0,.53,0,.63-.35.16-.61.09-1-.25-1.24A1.83,1.83,0,0,0,22.2,30c0,.25,0,.36.28.35Z"/><path d="M8.81,31.28h-1a.39.39,0,0,0-.46.39.8.8,0,0,1,0,.15c-.18.84-.32.94-1.16.81-.25,0-.38-.17-.33-.41.23-1,.45-2.06.74-3.07a2,2,0,0,1,1.45-1.28,5,5,0,0,1,2.81,0A1.28,1.28,0,0,1,12,29.39c-.11,1-.35,1.94-.54,2.91-.06.28-.28.33-.53.34-1,0-1,0-.78-.9.09-.41.06-.45-.38-.46Zm.62-2.65A1.56,1.56,0,0,0,7.65,30c-.06.29,0,.43.32.41.72,0,1.44,0,2.16-.08a.52.52,0,0,0,.37-.17,1,1,0,0,0-.75-1.57Z"/><path d="M3.4,32.67c-.59,0-1.2,0-1.79-.12A1.72,1.72,0,0,1,0,30.35,2.83,2.83,0,0,1,3,27.8c.82,0,1.63-.05,2.45-.06.21,0,.49-.07.51.28a.57.57,0,0,1-.53.67c-.66,0-1.31,0-2,0a1.75,1.75,0,0,0-1.92,1.62,1,1,0,0,0,1.09,1.34h2c.29,0,.58,0,.59.43s-.16.53-.62.54H3.41Z"/><path d="M15.63,27.73H18c.23,0,.52,0,.52.32s-.12.61-.49.62c-.54,0-1.07,0-1.61,0s-.59.12-.67.54c-.16.89-.36,1.78-.56,2.67a1,1,0,0,1-1.46.68.53.53,0,0,1-.1-.44c.19-1,.41-1.94.61-2.91.11-.52.09-.54-.46-.54-.28,0-.56,0-.84,0s-.49.05-.51-.3a.58.58,0,0,1,.51-.65,8.62,8.62,0,0,1,.88,0Z"/><path d="M18.53,32.63h-.36c-.23,0-.34-.13-.29-.37.21-1,.42-2.07.67-3.09a.52.52,0,0,1,.38-.31c1.21,0,1.13-.09.89,1-.16.7-.3,1.41-.45,2.12S19.21,32.64,18.53,32.63Z"/><path d="M19.37,28.71h-.2c-.22,0-.48,0-.48-.33s.19-.63.51-.63a1.75,1.75,0,0,1,.4,0c.25,0,.58-.05.56.38s-.16.53-.62.54Z"/></g></g></svg>