<svg xmlns="http://www.w3.org/2000/svg" viewBox="0 0 86.22 32.18"><g id="Layer_2" data-name="Layer 2"><g id="Layer_1-2" data-name="Layer 1"><path d="M18.1.06c1.95,0,3.9,0,5.85,0,2.76,0,5.52.14,8.28.2s5.66.15,8.49.2c4.53.09,9.06.15,13.59.23l9.87.2C68.6,1,73,1,77.45,1.13c1.38,0,2.76.12,4.13.21a4.89,4.89,0,0,1,4.63,5c-.11,2.94-.37,5.86-.57,8.79-.09,1.34-.18,2.68-.28,4-.21,2.72-.38,5.44-.68,8.14a5.71,5.71,0,0,1-5.55,4.91c-2.44,0-4.88-.24-7.31-.38l-4-.26L60,31l-6.13-.47-7.93-.6-3.38-.23c-2.43-.16-4.87-.29-7.3-.47s-4.65-.39-7-.57c-1.12-.09-2.25-.17-3.38-.24-2.43-.15-4.87-.28-7.3-.46s-4.65-.4-7-.58c-1.56-.11-3.11-.15-4.66-.27a28.83,28.83,0,0,1-3.47-.42,3.17,3.17,0,0,1-2.45-3,9.54,9.54,0,0,1,.87-4.22L4.41,10C5.21,7.87,6,5.69,6.82,3.57A5.53,5.53,0,0,1,12.05.05c2-.1,4,0,6.05,0Zm-9,1.41C7.75,5.2,6.37,8.86,5,12.55s-2.61,7.39-4,11.23c1.12.11,2,.23,2.93.3,1.37.1,2.75.15,4.12.25,2.47.19,4.93.41,7.4.59,2.11.16,4.23.28,6.34.43,3.1.21,6.2.44,9.3.63,2.72.18,5.44.3,8.15.46,1.17.07,2.33.14,3.49.23,2.54.19,5.07.41,7.61.59,3.17.23,6.34.42,9.51.64s6.13.45,9.2.64c2.89.18,5.79.3,8.68.45.28,0,.56.1.84.12A8,8,0,0,0,81.73,29c.28-1.4,2.51-25.25,2.08-26a3.05,3.05,0,0,0-.66-.15c-1.91-.08-3.81-.16-5.72-.21-3-.08-6-.14-9-.2L58.22,2.21,47.71,2,37.42,1.78l-9.66-.21-9.23-.21c-2.8-.07-5.59-.13-8.39-.17A4.28,4.28,0,0,0,9.13,1.47Z"/><path d="M55.7,4.85A12.44,12.44,0,0,1,60,5.6a5.29,5.29,0,0,1,3.52,6.24,15.33,15.33,0,0,1-1.14,3.51A7.22,7.22,0,0,1,57.56,19a12.84,12.84,0,0,1-7.83-.1c-3.31-1.06-4.29-3.43-3.89-6.51a8.45,8.45,0,0,1,2.61-5.32,8.34,8.34,0,0,1,4.2-1.93C53.65,5,54.68,5,55.7,4.85Zm-5,7.88c0,1.65,0,1.71.56,2.37a3.45,3.45,0,0,0,4.64.79,5.26,5.26,0,0,0,2.59-4.16c.46-3.09-2-4.88-4.83-3.61A5.12,5.12,0,0,0,50.68,12.73Z"/><path d="M78.41,6.16l-.66,2.9c-.75-.18-1.39-.37-2-.46a11,11,0,0,0-1.9-.14,13.94,13.94,0,0,0-2.41.22c-.35.07-.64.45-1.1.79a5.16,5.16,0,0,0,1,.85,17.6,17.6,0,0,0,2,.74,25,25,0,0,1,3.1,1c2.1,1.05,2.5,3.3,1.41,5.49a4.86,4.86,0,0,1-3.15,2.36c-3.55,1-7.06.5-10.73-.48l.95-3.33,1.77.54a10.23,10.23,0,0,0,4.91.42A1.59,1.59,0,0,0,73,15.88a2.4,2.4,0,0,0-1.66-1.35c-1-.34-2-.64-3-1A10,10,0,0,1,67.11,13a2.94,2.94,0,0,1-1.8-3.17,3.76,3.76,0,0,1,2-3.18A9.09,9.09,0,0,1,71.2,5.55a26.54,26.54,0,0,1,5.91.24C77.48,5.85,77.85,6,78.41,6.16Z"/><path d="M22.4,12.27c-.9,1.56-1.09,3.44-1.92,5.13a9.32,9.32,0,0,1-4.32-.31l4.47-13c1.06,0,2.11,0,3.16,0,1.56,0,3.12.08,4.66.21a8.79,8.79,0,0,1,2.27.51,2.39,2.39,0,0,1,1.41,2.8,3.89,3.89,0,0,1-1.82,2.62l-1.4.75.9,6.67a10.83,10.83,0,0,1-4.61,0c-.08-.64-.19-1.33-.26-2,0-.35,0-.71,0-1.06C24.88,13.09,24.26,12.17,22.4,12.27Zm.88-3.09c2.34.79,3.7.33,4.2-1.44-.88-1.11-2.11-.86-3.43-.82Z"/><path d="M77.58,22.83l-.32,1.9c-.72,0-1.31,0-1.9,0-3.54-.21-7.07-.41-10.6-.64-4-.25-8-.54-12-.78-2.86-.18-5.73-.31-8.59-.48s-5.64-.38-8.46-.57L32.15,22l-9.23-.48c-2.43-.13-4.87-.28-7.31-.43a7.68,7.68,0,0,1-.8-.2l.59-1.71c.67,0,1.3,0,1.93,0,2.19.12,4.38.26,6.57.4l12.7.79c1.59.1,3.19.16,4.78.25l10.06.6c1.27.08,2.54.17,3.81.23,3.32.17,6.65.31,10,.49q5.3.29,10.59.62C76.34,22.62,76.86,22.73,77.58,22.83Z"/><path d="M46.93,5l-.6,2.5c-1.38.7-2.79-.36-4.11.42-.49,1.72-1,3.47-1.48,5.24s-.87,3.53-1.28,5.22h-4.7c.82-3.8,2.09-7.27,2.94-11.07H33.85l.77-2.75c.89,0,1.73,0,2.57,0,2.75.07,5.51.14,8.26.23A14.6,14.6,0,0,1,46.93,5Z"/><path d="M13.89,19.11,13.31,21l-3.76-.25-.64.91-1.19-.07v-1c-.26,0-.46-.06-.67-.11a1.24,1.24,0,0,1-1-1.56,6.18,6.18,0,0,1,.31-1c.12-.33.26-.65.43-1.06l1.41.07-.35,1.59.53.22.74-1,1.27-.06-.09,1.15Z"/><path d="M12,13.46c-1.34-.83-1-2.78.11-3.63a3.56,3.56,0,0,1,3.29-.74l-.88,2.76c.93-.58.93-.58,1.38-2.37h1c.71,2.6-2,4.74-4.94,4Z"/><path d="M18.89,4.31a3.67,3.67,0,0,1-3.05,4,2.29,2.29,0,0,1-2.55-.85c-.61-1-.06-1.79.42-2.56A3.46,3.46,0,0,1,17.25,4l-.39,1.17c-.11.35-.23.71-.39,1.23C17.62,6,17.35,5,17.68,4.22Z"/><path d="M12,13.46l-.15,1.28c.4.61,1,.57,1.54.59s1.11.06,1.86.1l-.62,1.79L9.36,17c.08-.76.21-1.37.69-1.63l.29-1.86Z"/></g></g></svg>