<svg xmlns="http://www.w3.org/2000/svg" viewBox="0 0 19.5 32.66"><g id="Layer_2" data-name="Layer 2"><g id="Layer_1-2" data-name="Layer 1"><path d="M.12,0C.88.08,1.59.13,2.3.22A32.09,32.09,0,0,0,11,.14c.36-.06.74-.09,1.11-.13s.41,0,.41.34c0,1,0,2,0,2.95a.8.8,0,0,1-.14.38c-.15.27-.35.52-.48.8a1.23,1.23,0,0,1-1.25.79c-.92,0-1.37.58-1.37,1.53q0,6.5,0,13c0,.41-.24.79.05,1.25a1.43,1.43,0,0,0,1.08.75l.84.06a1.53,1.53,0,0,1,1.56,1.57c0,.76,0,1.52,0,2.28,0,.59,0,.6-.6.54-1.2-.1-2.39-.26-3.58-.29-1.72,0-3.45,0-5.17.08-1.06,0-2.11.17-3.16.25C.19,26.27,0,26.11,0,26,0,25,0,24,0,22.94c0-.42.77-1.07,1.19-1.09a10.17,10.17,0,0,0,1.11-.09c.73-.13.9-.33,1-1.05.07-1.29.17-2.58.2-3.86,0-2.65.06-5.29.08-7.94,0-.77,0-1.55-.06-2.33A1.26,1.26,0,0,0,2.17,5.3c-.38,0-.94.09-1.1-.12A3.89,3.89,0,0,1,.16,3.43,27.8,27.8,0,0,1,.12,0ZM12,.35A11,11,0,0,1,6.46,1.87,11.61,11.61,0,0,1,.87.51C3.67,2.55,9.34,2.59,12,.35ZM7.36,15.69l.13,0L4.15,6.36,4,6.41Z"/><path d="M11.38,30.1c0-.65,0-1.31,0-2,0-.13.17-.37.27-.37a14.72,14.72,0,0,1,2,.08,1.09,1.09,0,0,1,1,.92,1.39,1.39,0,0,1-.44,1.52.41.41,0,0,0-.13.66c.23.35.5.69.72,1.05a.7.7,0,0,1,.12.45.44.44,0,0,1-.36.19,1.65,1.65,0,0,1-.71-.46A5.23,5.23,0,0,1,13.22,31a.56.56,0,0,0-.77-.31c-.12,0-.19.33-.21.52a4.17,4.17,0,0,0,0,.79c0,.32-.07.5-.44.49s-.42-.18-.41-.47Zm.83-.9c0,.86,0,.87.51.88.78,0,1.1-.22,1.12-.8s-.26-.89-.91-.9S12.23,28.36,12.21,29.2Z"/><path d="M15.59,30.14c0-.14,0-.28,0-.42-.13-1.26.73-2.23,2.32-2a1.68,1.68,0,0,1,1.51,1.42,9.31,9.31,0,0,1,0,1.9,1.82,1.82,0,0,1-2,1.67,1.8,1.8,0,0,1-1.84-1.83c0-.23,0-.46,0-.69Zm3,0h0c0-.26,0-.53,0-.79a1.1,1.1,0,0,0-2.19-.05c0,.57,0,1.15,0,1.72a1,1,0,0,0,1.09,1,1,1,0,0,0,1.09-1C18.62,30.72,18.61,30.43,18.61,30.13Z"/><path d="M7,30.12c0-.65,0-1.31,0-2,0-.29.08-.44.4-.42a17.31,17.31,0,0,1,1.9.12,1.2,1.2,0,0,1,1,1.3c0,.83-.22,1.33-.91,1.55a5.41,5.41,0,0,1-1.14.17c-.28,0-.4.1-.39.38s0,.53,0,.79,0,.52-.45.52S7,32.34,7,32C7,31.39,7,30.76,7,30.12Zm.88-.81h0a3,3,0,0,0,0,.6c0,.12.16.3.25.31A2.3,2.3,0,0,0,9,30.16.9.9,0,0,0,9.52,29c-.12-.47-.62-.73-1.3-.62s-.22.52-.3.79C7.9,29.21,7.92,29.26,7.92,29.31Z"/></g></g></svg>