<svg xmlns="http://www.w3.org/2000/svg" viewBox="0 0 32.86 32.86"><g id="Layer_2" data-name="Layer 2"><g id="Layer_1-2" data-name="Layer 1"><path d="M16.44,0A16.43,16.43,0,1,1,0,16.38,16.47,16.47,0,0,1,16.44,0ZM30.63,16.28c.35,0,.71,0,1.06,0,.62.06.84-.18.8-.81a16.12,16.12,0,0,0-4.17-9.89c-.28-.31-.49-.34-.79,0-.55.59-1.11,1.17-1.71,1.7-.42.38-.46.64-.06,1.09a11.81,11.81,0,0,1,2.88,6.21C28.91,16.27,28.89,16.28,30.63,16.28ZM16.28,30.63a6.4,6.4,0,0,1,0-1c.08-.64-.17-.87-.82-.92a12.08,12.08,0,0,1-7.29-3.11c-.3-.27-.49-.24-.75,0-.59.62-1.18,1.23-1.81,1.81-.37.34-.36.58,0,.9a16.11,16.11,0,0,0,9.31,4.08c1.33.13,1.34.1,1.34-1.28Zm-14-14c-.38,0-.76,0-1.13,0-.56,0-.76.16-.73.73a16,16,0,0,0,4.16,10c.28.31.49.36.8,0,.55-.58,1.11-1.16,1.71-1.7.41-.38.47-.63.06-1.09a11.84,11.84,0,0,1-2.89-6.2C4,16.59,4,16.58,2.24,16.58ZM16.59,2.17a8,8,0,0,1,0,1c-.07.64.12.93.84,1a11.9,11.9,0,0,1,7.22,3.08c.36.33.57.24.86-.07C26,6.58,26.57,6,27.16,5.49s.42-.71-.05-1.11A16.44,16.44,0,0,0,18.29.44c-1.7-.21-1.7-.22-1.7,1.5ZM2.19,16.28a8,8,0,0,1,1,0c.68.09.91-.18,1-.86A11.92,11.92,0,0,1,7.22,8.21c.29-.33.26-.53,0-.81C6.6,6.85,6,6.29,5.48,5.69s-.67-.42-1.06,0a15.85,15.85,0,0,0-4,9c-.19,1.87-.13,1.49,1.38,1.53Zm28.5.3c-.33,0-.66,0-1,0-.65-.08-.93.13-1,.84a11.53,11.53,0,0,1-2.15,6c-.34.47-.35.78.15,1.09.32.2.52.47.15.77-.72.57-.46,1,.13,1.46a2.22,2.22,0,0,1,.37.38c.4.54.7.41,1.1,0a16.37,16.37,0,0,0,3.94-8.82c.22-1.7.22-1.7-1.51-1.7Zm-14.1,14v.91c0,1,0,1,1,1a15.76,15.76,0,0,0,8.8-3.41c1.38-1.08,1.36-1.07.14-2.32-.39-.4-.66-.44-1,0s-.68.51-1,0-.61-.41-1-.11a11.62,11.62,0,0,1-5.21,2.07C16.59,28.89,16.59,28.87,16.59,30.59ZM16.28,2.28c0-.4,0-.8,0-1.2s-.14-.73-.69-.7a16,16,0,0,0-10,4.18c-.33.29-.3.5,0,.79.59.55,1.14,1.14,1.72,1.7.23.21.39.62.85.23s.17-.66-.08-.93-.28-.55.1-.83a14.37,14.37,0,0,1,4.72-2.29c.44-.12.71,0,.76.44s.35.64.87.56C16.28,4,16.28,4,16.28,2.28Zm10.26,14v0a8,8,0,0,1,1,0c.75.09,1-.21.89-.94a12.16,12.16,0,0,0-3-6.87c-.27-.32-.48-.37-.79-.05-.6.64-1.22,1.26-1.86,1.87-.3.28-.31.49,0,.81a8.1,8.1,0,0,1,1.76,3.54c.12.52.08,1.25.41,1.52S26,16.28,26.54,16.31ZM16.28,26.7h0a7.8,7.8,0,0,0,0-1.28.78.78,0,0,0-.42-.49c-.57-.22-1.19-.3-1.73-.56-1-.5-2-1.05-3-1.64-.32-.2-.5-.23-.76,0-.59.62-1.18,1.24-1.81,1.81-.42.38-.33.62.06,1a12.3,12.3,0,0,0,6.09,2.79c1.62.26,1.63.26,1.63-1.39ZM26.57,16.58a6.4,6.4,0,0,1-1,0c-.64-.08-.89.17-.94.81a7.53,7.53,0,0,1-1.38,3.71.51.51,0,0,0,.14.82c.68.51,1.36,1,2,1.59.37.31.58.24.84-.14a11.8,11.8,0,0,0,2.11-5.58c.13-1.19.11-1.2-1.12-1.2Zm-10,10a8,8,0,0,1,0,1c-.07.67.21.87.87.81a12.13,12.13,0,0,0,5.94-2.16c.4-.27.4-.49.11-.84-.53-.63-1.05-1.28-1.54-1.94-.29-.39-.5-.38-.93-.16a17.29,17.29,0,0,1-3.5,1.49c-.83.2-1,.48-1,1.22A4,4,0,0,1,16.59,26.61Zm0-20.36h0c0,.57-.13,1.29.15,1.68s1,.28,1.53.4a2.18,2.18,0,0,1,.44.11c.46.21.67,0,.84-.41.45-1.14.46-1.13,1.55-.6.16.07.31.16.47.24,1.22.68,1.2.67.44,1.85-.11.17,0,.46-.05.69.23-.07.51-.07.67-.21.61-.56,1.17-1.18,1.78-1.74.37-.35.35-.58,0-.9a12.21,12.21,0,0,0-6.3-2.86c-1.46-.21-1.46-.19-1.46,1.29ZM8,17.94c-1.11.2-2.1.36-3.08.57a.53.53,0,0,0-.26.46,11.44,11.44,0,0,0,2.82,5.48.64.64,0,0,0,.64,0c.69-.62,1.35-1.28,2-2a.63.63,0,0,0,0-.61,9,9,0,0,1-1.79-3.53C8.31,18.17,8.12,18,8,17.94Zm14.46-1.66c.43,0,.85,0,1.28,0s.61-.17.57-.62a7.61,7.61,0,0,0-1.85-4.36.66.66,0,0,0-.64,0c-.49.42-.91.93-1.4,1.35s-1.06,1.06-.3,1.82a1.63,1.63,0,0,1,.28.61c.41,1.22.41,1.22,1.68,1.22Zm.05.3v0a4.22,4.22,0,0,0-1.69.13c-.32.18-.34.88-.51,1.34a2.1,2.1,0,0,1-.27.54c-.24.34-.15.58.17.82.67.51,1.35,1,2,1.59.37.32.64.26.81-.15a23.72,23.72,0,0,0,1.19-3c.33-1.21.22-1.27-1-1.27ZM15.4,20.86c0-.07-.1-.28-.24-.37a9.26,9.26,0,0,0-1.39-.74.67.67,0,0,0-.56.15c-.66.62-1.31,1.26-1.91,1.93-.11.12-.11.57,0,.63.94.56,1.91,1.08,2.9,1.57a.62.62,0,0,0,.54-.25C15,22.86,15.17,21.92,15.4,20.86Zm-5-10.18c-.11-.14-.2-.26-.3-.37l-1-1C7.7,7.93,7.7,7.93,6.55,9.58s-1,1.51.56,2.29c.56.27,1.19.8,1.69.7s.79-.86,1.18-1.34C10.12,11.06,10.24,10.88,10.38,10.68Zm6.89,10.19c.19,1.08.33,2,.54,2.95a.67.67,0,0,0,.59.29,12.16,12.16,0,0,0,2-.77c1-.55,1-.58.33-1.48l-.61-.77c-1-1.24-1-1.25-2.4-.61A1.49,1.49,0,0,0,17.27,20.87ZM12,17.24c-1.13.2-2.1.36-3.06.57a.65.65,0,0,0-.23.57q.78,1.62,1.65,3.18a.66.66,0,0,0,.63,0c.68-.6,1.31-1.25,1.93-1.91a1.37,1.37,0,0,0,.18-.56c-.19,0-.43-.05-.58,0-.48.28-.92.61-1.38.92-.24.16-.48.34-.65-.08s-.28-.61.18-.81a10.17,10.17,0,0,0,1.47-.75.77.77,0,0,0,.22-.65C12.36,17.56,12.14,17.38,12,17.24ZM16.28,6.31c0-2.06-.05-2.09-1.76-1.76-.56.1-.63.35-.51.82.17.71.35,1.41.46,2.13s.41.82,1.08.71.79-.28.73-.85C16.25,7,16.28,6.66,16.28,6.31Zm.88,2.22c-.43-.1-.59.11-.58.57,0,.75,0,1.51,0,2.26,0,.56.1.85.72,1s.72-.26.86-.67.29-.75.43-1.13C19.22,8.79,19.08,8.59,17.16,8.53Zm-6.6,2.38c-.41.69-.79,1.32-1.15,2,0,0,.2.21.33.27.81.4,1.63.78,2.44,1.19.41.21.58,0,.78-.3s.36-.52,0-.84c-.67-.62-1.29-1.27-1.93-1.91C10.94,11.18,10.82,11.1,10.56,10.91Zm6.55,5.68-.09.2c.72.58,1.43,1.16,2.16,1.73a.7.7,0,0,0,.38.1c.25-.61.47-1.23.68-1.85a.84.84,0,0,0-.36-.18C19,16.58,18,16.59,17.11,16.59Zm-.84-6.26a13.62,13.62,0,0,0,0-1.43c-.06-.65-.56-.32-.88-.34s-.64,0-.53.51c.22.93.4,1.86.64,2.78,0,.15.3.29.48.32s.28-.26.29-.41C16.3,11.29,16.27,10.81,16.27,10.33ZM17.12,16l.1.16,1.86-.5c.36-.11.69-.19.79.33,0,.1.15.17.23.25,0-.12.19-.27.16-.35-.22-.6-.47-1.2-.74-1.78,0-.08-.35-.14-.41-.08C18.43,14.66,17.78,15.33,17.12,16Zm-.93,1.23L15.88,17c-.5.56-1,1.13-1.51,1.67s-.58.7.18,1.12a1.44,1.44,0,0,0,.55.23c.17,0,.47-.1.5-.22C15.83,19,16,18.1,16.19,17.22Zm.66-.13-.2.09c.12.75.22,1.5.37,2.24a1.8,1.8,0,0,0,.35.72,8.93,8.93,0,0,0,1.26-.58.48.48,0,0,0-.06-.33C18,18.51,17.43,17.8,16.85,17.09ZM11,10a1.12,1.12,0,0,0-.08-.18c-.67-.81-1.33-1.64-2-2.42-.07-.08-.41,0-.55.11A.49.49,0,0,0,8.3,8c.7.75,1.44,1.47,2.17,2.19a.39.39,0,0,0,.33.07C10.89,10.25,11,10.11,11,10Zm5.58,5.23.2.06c.26-.7.53-1.39.77-2.1.05-.14,0-.43,0-.46a1.29,1.29,0,0,0-.71-.15c-.1,0-.22.3-.22.47C16.57,13.82,16.59,14.54,16.59,15.27Zm2.57-2.21.22.21c.78-.79,1.57-1.58,2.33-2.39.07-.06,0-.35-.06-.41a.44.44,0,0,0-.43,0C20.52,11.34,19.85,12.2,19.16,13.06Zm-3.84,2.75.15-.2c-.53-.5-1.06-1-1.57-1.49-.28-.28-.46-.22-.66.07s-.28.53.12.71Zm0,1.1-.07-.22c-.76.13-1.52.24-2.27.42-.13,0-.31.39-.26.46s.4.36.51.32C14,17.6,14.66,17.24,15.35,16.91ZM13.4,13.26l.2-.18c-.66-.81-1.32-1.63-2-2.42-.08-.1-.31-.08-.48-.11,0,.14,0,.34.12.43C12,11.75,12.68,12.51,13.4,13.26Zm2.72,1.5h.15c0-.6,0-1.2,0-1.79,0-.13-.22-.24-.33-.36-.07.13-.21.28-.19.4C15.84,13.6,16,14.18,16.12,14.76Zm-1.29,3.08-.13-.16c-.4.27-.81.53-1.2.83-.07,0,0,.24-.05.37s.25,0,.32,0C14.13,18.52,14.48,18.17,14.83,17.84Z"/></g></g></svg>