<svg xmlns="http://www.w3.org/2000/svg" viewBox="0 0 34.82 32.45"><g id="Layer_2" data-name="Layer 2"><g id="Layer_1-2" data-name="Layer 1"><path d="M34.82,25.77a23.73,23.73,0,0,1-1.7,3.38,8.23,8.23,0,0,1-8.89,3,8.38,8.38,0,0,1-6-7,8.18,8.18,0,0,1,3.1-7.69c.66-.55,1.12-.64,1.53.24a9.87,9.87,0,0,0,.81,1.37c.76,1.09,1.26,2,.07,3.31s-.59,3.26.69,4.26a3.25,3.25,0,0,0,4.43-.3A3.15,3.15,0,0,0,29,21.94a1.37,1.37,0,0,1-.15-2.07,20.14,20.14,0,0,0,1.34-2.29c.36-.7.75-.71,1.32-.26a8.63,8.63,0,0,1,2.91,4c.13.37.27.73.4,1.1Z"/><path d="M21.44,15.71c-.79-1.36-1.56-2.54-2.16-3.81-.15-.3.18-.94.46-1.31a3.29,3.29,0,0,0,.44-3.67,3,3,0,0,0-3-1.75A3,3,0,0,0,14.31,7a3,3,0,0,0,.5,3.45,1.39,1.39,0,0,1,.15,2.1A27.46,27.46,0,0,0,13.5,15c-.3.53-.62.55-1.12.23A8.56,8.56,0,0,1,9.15,6.16,8.5,8.5,0,0,1,16.48,0a8.4,8.4,0,0,1,9.21,8.57A8.31,8.31,0,0,1,21.44,15.71Z"/><path d="M8.25,32.39A8.13,8.13,0,0,1,0,24,8.15,8.15,0,0,1,8.29,15.8a15.22,15.22,0,0,1,3.11.53c.83.19,1.09.67.53,1.46A11.39,11.39,0,0,0,11,19.33c-.55,1.09-1.08,1.85-2.63,1.48s-3,1.09-3.32,2.67a3.32,3.32,0,0,0,2,3.68,3.24,3.24,0,0,0,4-1.23,1.71,1.71,0,0,0,.33-.66c.15-1.37,1-1.56,2.17-1.44a14,14,0,0,0,1.59,0c1.65,0,1.66,0,1.4,1.67C15.94,29.4,12.14,32.69,8.25,32.39Z"/></g></g></svg>