<svg xmlns="http://www.w3.org/2000/svg" viewBox="0 0 44.33 31.96"><g id="Layer_2" data-name="Layer 2"><g id="Layer_1-2" data-name="Layer 1"><path d="M0,32c0-2.41,0-4.82,0-7.22V22.83c.47,0,.92,0,1.36,0,.07,0,.18.15.2.24a5.72,5.72,0,0,1,0,.62c.24-.2.43-.39.64-.54a2.87,2.87,0,0,1,4.21,1A3.67,3.67,0,0,1,6.32,28a2.87,2.87,0,0,1-4.21.69l-.37-.29V32Zm5.15-6A2,2,0,0,0,4,24a1.66,1.66,0,0,0-1.85.54,2.33,2.33,0,0,0-.22,2.52,1.67,1.67,0,0,0,2.3.77A1.93,1.93,0,0,0,5.17,26Z"/><path d="M27.87,0V13.68c-.63,0-1.23,0-1.82,0-.07,0-.16-.12-.19-.2a1.53,1.53,0,0,1,0-.37V.53c0-.18,0-.35,0-.53Z"/><path d="M28.38,20.39h1.7V29.1H28.56l-.06-.86c-.11.11-.19.17-.26.25a2.91,2.91,0,0,1-4.44-.44,3.83,3.83,0,0,1,.05-4.21,2.92,2.92,0,0,1,4.24-.5l.29.26Zm.08,5.47a1.76,1.76,0,0,0,0-.28A1.82,1.82,0,0,0,27.15,24a1.68,1.68,0,0,0-1.82.63,2.48,2.48,0,0,0,0,2.68,1.69,1.69,0,0,0,1.92.65A1.94,1.94,0,0,0,28.46,25.86Z"/><path d="M13.18,23.65l.08-.8h1.5V29.1h-1.5l-.09-.82a1.56,1.56,0,0,0-.17.12,2.91,2.91,0,0,1-4.95-1.29A3.69,3.69,0,0,1,8.45,24a2.89,2.89,0,0,1,4.39-.55,1.58,1.58,0,0,1,.22.29Zm0,2.11a4.3,4.3,0,0,0-.35-1,1.66,1.66,0,0,0-2.77-.19,2.32,2.32,0,0,0-.2,2.49,1.66,1.66,0,0,0,2.33.77A2.17,2.17,0,0,0,13.17,25.76Z"/><path d="M18.44,18.13h-2V4.48h2Z"/><path d="M36.36,23.65c0-.26,0-.68.14-.75a2.13,2.13,0,0,1,.92-.08H38v6.31c-.46,0-.89,0-1.33,0-.07,0-.18-.16-.21-.27a5.08,5.08,0,0,1,0-.65,3,3,0,0,1-1.68,1,2.83,2.83,0,0,1-3.26-1.61A3.65,3.65,0,0,1,31.65,24a2.87,2.87,0,0,1,4.45-.48,1,1,0,0,1,.16.24Zm0,2.32c0-.11,0-.22,0-.33a1.82,1.82,0,0,0-1.69-1.71,1.71,1.71,0,0,0-1.78,1.54,3.31,3.31,0,0,0,.07,1.33A1.68,1.68,0,0,0,35,28,1.9,1.9,0,0,0,36.34,26Z"/><path d="M22.43,29.13c-.57,0-1.05,0-1.52,0-.08,0-.22-.21-.22-.32,0-1,0-2,0-3a4.79,4.79,0,0,0,0-.65,1.13,1.13,0,0,0-1.6-1,1.7,1.7,0,0,0-1.2,1.63c0,1.11,0,2.22,0,3.36h-1.7V22.86h1.54l.11,1a4.31,4.31,0,0,1,.41-.43A2.7,2.7,0,0,1,21,22.8a1.74,1.74,0,0,1,1.25,1.54C22.38,25.92,22.38,27.5,22.43,29.13Z"/><path d="M43.76,24.22c-.64-.14-1.22-.29-1.81-.39a.8.8,0,0,0-.55.07c-.19.11-.43.3-.46.48s.18.41.35.53a2.43,2.43,0,0,0,.64.24,11.22,11.22,0,0,1,1.31.45,1.68,1.68,0,0,1,1.09,1.68,1.91,1.91,0,0,1-1.18,1.78A4.15,4.15,0,0,1,40,29c-.8-.29-.8-.3-.6-1.13,0-.13.07-.26.08-.31.71.19,1.39.4,2.08.55a1.51,1.51,0,0,0,.84-.11.79.79,0,0,0,.42-.53.79.79,0,0,0-.38-.54,5.53,5.53,0,0,0-.92-.31,6.15,6.15,0,0,1-1.31-.56A1.78,1.78,0,0,1,40.34,23,3.48,3.48,0,0,1,43,22.8c1.05.29,1.1.38.75,1.42Z"/><path d="M22.79,4.47h1.93V8.56H22.79Z"/><path d="M21.6,5.17H19.67V1.1H21.6Z"/><path d="M21.61,9.54v4.08H19.66V9.54Z"/><path d="M24.72,17H22.79V12.93h1.93Z"/><path d="M22.8,11.69V9.8h1.91v1.89Z"/><path d="M20.63,8.26c-.94,0-.94,0-.94-.92s0-.89.92-.89,1,0,1,1S21.59,8.26,20.63,8.26Z"/></g></g></svg>