<svg xmlns="http://www.w3.org/2000/svg" viewBox="0 0 119.3 33.51"><g id="Layer_2" data-name="Layer 2"><g id="Layer_1-2" data-name="Layer 1"><g id="Layer_2-2" data-name="Layer 2"><g id="Layer_1-2-2" data-name="Layer 1-2"><path d="M56.26,33.49c-.48-.07-1-.12-1.44-.2a12.08,12.08,0,0,1-3.38-1A2.49,2.49,0,0,0,50.28,32c-1,0-1.94-.05-2.92,0a2.77,2.77,0,0,0-1.13.28,7.83,7.83,0,0,1-3.59.84c-.92,0-1.85,0-2.77-.07A5.63,5.63,0,0,1,37,31.84a3.87,3.87,0,0,0-3.7-.66,1.35,1.35,0,0,0-.42.2A12.79,12.79,0,0,1,28,33.05a15.85,15.85,0,0,1-7.52-.58,6.71,6.71,0,0,1-2.73-1.67.56.56,0,0,0-.71-.15A3.92,3.92,0,0,0,15,32.23a3.16,3.16,0,0,1-.37.45.79.79,0,0,1-.92.16c-.31-.11-.36-.38-.38-.65a4.21,4.21,0,0,1,2.14-4.06l.08-.05c.46-.16.59-.45.54-1a3.19,3.19,0,0,1,.63-2.22,1.5,1.5,0,0,0,.19-.32A10.94,10.94,0,0,1,14.1,26.8a11.24,11.24,0,0,1-3.47.8v1.6a1.66,1.66,0,0,1-1,1.82A2.56,2.56,0,0,0,8.48,32.1a2.66,2.66,0,0,1-1.86,1.14,9.15,9.15,0,0,1-4-.1,1.91,1.91,0,0,1-1.54-1.53C.89,30.33.57,29,.41,27.7.2,25.89,0,24.05,0,22.22c0-2,0-4,.1-6a4.08,4.08,0,0,1,1.53-3c.38-.33.73-.69,1.1-1a7.56,7.56,0,0,1,4-2.15,19.23,19.23,0,0,1,8.76.47A9.39,9.39,0,0,1,18,11.84l.21.14c.74-.53,1.4-1.07,2.14-1.5a3.51,3.51,0,0,1,2.84-.43,2.67,2.67,0,0,1,2,3.14c-.13.63-.3,1.25-.48,1.86a.47.47,0,0,0,.19.59,5.38,5.38,0,0,0,1,.31c.21.05.24-.13.22-.31,0-.33-.09-.65-.12-1a1.67,1.67,0,0,1,.62-1.43l2.28-2a7.17,7.17,0,0,1,2.83-1.5,2.26,2.26,0,0,1,2.28.62,6.86,6.86,0,0,1,1.32,1.79c.1.17.21.33.34.54.32-.37.62-.68.89-1a3,3,0,0,1,2.55-1.22,21.53,21.53,0,0,1,4.6.43,1.55,1.55,0,0,0,.43,0c.09,0,.23,0,.26-.12A1.24,1.24,0,0,1,45.65,10a10.27,10.27,0,0,1,2,.08A1.72,1.72,0,0,1,49,11.43c.25.88.42,1.78.62,2.66l.1.39a.67.67,0,0,0,.15-.14A8.62,8.62,0,0,1,54,11.46a20,20,0,0,1,5.6-1.35,4.51,4.51,0,0,1,4.55,2.14c.47.75.86,1.56,1.29,2.34l.18.34c.2-.18.39-.32.55-.49.53-.58,1-1.19,1.59-1.74a4.73,4.73,0,0,1,2.48-1.47,4.23,4.23,0,0,1,3.08.36,7.93,7.93,0,0,1,1.17,1,2,2,0,0,1,.23.27c.09-.19.17-.35.23-.51a3.2,3.2,0,0,1,2.45-2.07,6.81,6.81,0,0,1,4.28.15,5.82,5.82,0,0,1,2.89,2.4c.35.55.68,1.11,1,1.7l1.31-1.25a14.6,14.6,0,0,1,2.37-2,8.11,8.11,0,0,1,6.82-.79,10.22,10.22,0,0,1,4.66,3,2.36,2.36,0,0,1,.2.31l.09-.08a1.85,1.85,0,0,1,.15-.53,3.4,3.4,0,0,1,1.7-2c.21-.11.26-.21.2-.43a10,10,0,0,1-.22-1.06,1,1,0,0,0-.41-.77,1.08,1.08,0,0,1-.31-.55,2.88,2.88,0,0,1,.15-1.92,7.58,7.58,0,0,1,.65-1.23,16,16,0,0,0,1.26-2.29,10.59,10.59,0,0,1,.93-1.6,2.73,2.73,0,0,1,3-1.2,4,4,0,0,1,2,.94,2.34,2.34,0,0,0,2.79.37,4.08,4.08,0,0,1,3-.33,2.46,2.46,0,0,1,2,1.63,16.88,16.88,0,0,1,.48,1.76l.75,3a4.36,4.36,0,0,1,0,2.48,1.89,1.89,0,0,1-.89,1,3.8,3.8,0,0,0-1,1,1.26,1.26,0,0,0-.38.66c0,.19.27.38.41.57a3.48,3.48,0,0,1,.5,3.66,3.38,3.38,0,0,1-3,2.16.71.71,0,0,0-.74.58q-1.18,3.38-2.43,6.74a15.69,15.69,0,0,1-1.83,3.24,6.06,6.06,0,0,1-3.38,2.4,12.92,12.92,0,0,1-4,.54c-1.51,0-3-.13-4.51-.19a.86.86,0,0,0-.39,0,11.68,11.68,0,0,1-7.09.08,7.5,7.5,0,0,1-1.76-.78,6,6,0,0,0-5-.68c-1.24.31-2.47.69-3.72.93a17.57,17.57,0,0,1-6.22.06c-.41-.07-.83-.14-1.25-.19a.38.38,0,0,0-.3.11A4.9,4.9,0,0,1,69,33.17a3.1,3.1,0,0,1-1.66-.41A5.58,5.58,0,0,0,64,32c-.74.07-1.48.27-2.23.39a4.51,4.51,0,0,0-1.34.45,7.22,7.22,0,0,1-2.54.65,1.78,1.78,0,0,0-.39.07ZM18.66,14.21A10.86,10.86,0,0,0,18,13a5,5,0,0,0-2.89-1.77,20,20,0,0,0-6.49-.67,9.43,9.43,0,0,0-2.93.54,4.16,4.16,0,0,0-2.88,3.16,10.38,10.38,0,0,0-.21,1.94A58.26,58.26,0,0,0,3,25.48c.21,1.36.53,2.7.79,4a1.2,1.2,0,0,0,.88.91,7.25,7.25,0,0,0,3,.27A5.76,5.76,0,0,0,9,30.36a1.3,1.3,0,0,0,.87-1.61v0c-.18-.88-.37-1.74-.56-2.61-.13-.64,0-.8.58-1a1.17,1.17,0,0,1,.36-.08L12.89,25a5.93,5.93,0,0,0,3.71-1.39,5.32,5.32,0,0,0,1.75-2.69,10.85,10.85,0,0,0,.36-3.2c.33.7.7,1.52,1.12,2.31a3.24,3.24,0,0,0,1.52,1.47,6.69,6.69,0,0,0,3.21.6c.94-.08,1.88-.28,2.82-.43a2.73,2.73,0,0,1,1.91.1c.44.23.58.56.29,1a4.74,4.74,0,0,1-1,1,5.32,5.32,0,0,1-2.41.84,1.83,1.83,0,0,1-1.85-.75c-.13-.17-.19-.39-.32-.56a2.34,2.34,0,0,0-1.42-.89,2.47,2.47,0,0,0-3.29,1.21l0,.09a3.26,3.26,0,0,0,.21,3.86,8.45,8.45,0,0,0,3.22,2.32,13.43,13.43,0,0,0,6.49.84,7.57,7.57,0,0,0,3.89-1.51,5.6,5.6,0,0,0,1.61-1.78,14.55,14.55,0,0,0,1.45-5.56,4.25,4.25,0,0,1,.08-.61.29.29,0,0,1,.17.19A1.63,1.63,0,0,0,38,22.58a40.07,40.07,0,0,0,6-.19,1.52,1.52,0,0,0,1.46-1h.07a7.76,7.76,0,0,1-.11,2.84,2.13,2.13,0,0,1-1.22,1.62,8,8,0,0,1-1.59.53,1.13,1.13,0,0,1-1.42-.72,1.37,1.37,0,0,1,0-.28,1.94,1.94,0,0,1,0-.68.92.92,0,0,0-.47-1.06,3.07,3.07,0,0,0-.82-.33c-.22-.07-.47-.07-.7-.12a4.44,4.44,0,0,0-1.85,0,1.07,1.07,0,0,0-1,1A11.68,11.68,0,0,0,36.15,26a4.46,4.46,0,0,0,3.66,4.57,16.08,16.08,0,0,0,4.27.21,6.75,6.75,0,0,0,3.07-.9,3.16,3.16,0,0,0,1.63-2.09,25.48,25.48,0,0,0,.54-3,40,40,0,0,0-.38-10.26c-.17-1-.47-1.92-.72-2.88a.8.8,0,0,0-.56-.58,3.65,3.65,0,0,0-2.12,0,.56.56,0,0,0-.46.52c0,.31-.19.37-.43.34-.51-.07-1-.13-1.51-.22a16.62,16.62,0,0,0-3.85-.4,2.29,2.29,0,0,0-1.71.61A8.17,8.17,0,0,0,36,14.53a2.22,2.22,0,0,0-.1.39c-.22-.53-.41-1-.63-1.48A6.78,6.78,0,0,0,33.68,11a2,2,0,0,0-2-.52,6,6,0,0,0-2.49,1.47,1.19,1.19,0,0,0-.36,1.28,16.66,16.66,0,0,0,.62,1.61.81.81,0,0,1-.22,1.06,4.32,4.32,0,0,1-1.12.65,5,5,0,0,1-2.51.12,2.38,2.38,0,0,1-1.54-.86.72.72,0,0,1-.16-.68c.2-.62.36-1.25.54-1.88a1.82,1.82,0,0,0-1.12-2.31h0a2.75,2.75,0,0,0-1.21-.09,3.52,3.52,0,0,0-3.19,2.52A6.45,6.45,0,0,0,18.66,14.21ZM85.8,18.34a12.79,12.79,0,0,0-1.5-4.46,6.18,6.18,0,0,0-2.56-2.65,6,6,0,0,0-4.65-.12,1.94,1.94,0,0,0-1.42,1.54,7.73,7.73,0,0,1-.37,1.12c-.19.49-.41.52-.75.12-.2-.24-.37-.5-.59-.72-1.25-1.24-2-1.52-3.65-1a4.73,4.73,0,0,0-3.13,3.14,16.38,16.38,0,0,0,.07,11.56,7,7,0,0,0,1.89,3,2.23,2.23,0,0,0,1.29.61,3.09,3.09,0,0,0,2.92-1,4.54,4.54,0,0,0,.92-3.85,8.36,8.36,0,0,0-1.18-2.53c-.48-.88-1-1.75-1.42-2.65a2.66,2.66,0,0,1-.07-2c.11-.34.27-.38.49-.09.35.44.67.89,1,1.36.64,1,1.27,1.91,1.92,2.86a2.93,2.93,0,0,0,.69.67A1,1,0,0,0,77.1,23a.56.56,0,0,1,.05-.08,2.82,2.82,0,0,0,.49-.92c.4-1.48.77-3,1.15-4.46a3.62,3.62,0,0,1,.13-.47c.16-.39.45-.45.71-.13a1.86,1.86,0,0,1,.53,1.42c-.21,1.51-.45,3-.65,4.52a14.41,14.41,0,0,0-.19,2.28A4,4,0,0,0,80.89,28a1.92,1.92,0,0,0,1.73.46,3.06,3.06,0,0,0,2-1.45,6.11,6.11,0,0,0,.88-2.47,7.5,7.5,0,0,1,.14-1,5.9,5.9,0,0,0,.2,1,8.79,8.79,0,0,0,3.76,4.6,12,12,0,0,0,5.88,1.57,5,5,0,0,0,2.9-.84c.63-.44,1.25-.91,1.83-1.4a7.58,7.58,0,0,0,2.53-4.32c.2-1,0-1.28-1-1.23-1.31.06-2.62.2-3.93.31a1.11,1.11,0,0,0-.91.62,7.94,7.94,0,0,1-.55.87,1.76,1.76,0,0,1-1.71.79,6.09,6.09,0,0,1-2.29-.84,2.55,2.55,0,0,1-1.46-2.49c0-.49.19-.63.66-.56h.28a70,70,0,0,0,7.93.11,15,15,0,0,0,2-.25c.61-.12.74-.36.71-1V20A9.65,9.65,0,0,0,101,15a2.08,2.08,0,0,0-.34-.48c-.75-.71-1.45-1.48-2.26-2.12A7.73,7.73,0,0,0,87.52,13.8c-.11.14-.21.28-.31.43A8.5,8.5,0,0,0,85.8,18.34Zm-19.91,3.2h0v-.69a12.73,12.73,0,0,0-2.5-8.28,3.29,3.29,0,0,0-2.19-1.51A10,10,0,0,0,59.31,11a15.88,15.88,0,0,0-4.69,1.15,9.41,9.41,0,0,0-2.8,1.52,2.68,2.68,0,0,0-1.07,1.48,3.77,3.77,0,0,0,.36,2.51,1.69,1.69,0,0,0,.71.74,2.74,2.74,0,0,0,2.77-.28c.35-.27.65-.58,1-.87a5.17,5.17,0,0,1,2.89-1.65,1,1,0,0,1,.66.13c.49.42.93.88,1.38,1.34a2,2,0,0,1,.5,1.58,1.27,1.27,0,0,1-.25.6,1.22,1.22,0,0,1-1.66.36l-.51-.23c-.52-.22-1-.47-1.57-.67a4.13,4.13,0,0,0-3.18.15,7.25,7.25,0,0,0-3.54,3.31,4.56,4.56,0,0,0-.13,4.52A5.85,5.85,0,0,0,52.39,29a12.2,12.2,0,0,0,5.69,1.79,13.1,13.1,0,0,0,3-.14,5,5,0,0,0,3.53-3,10.44,10.44,0,0,0,.87-2.48A27.06,27.06,0,0,0,65.89,21.54Zm46.2-3.16a2.12,2.12,0,0,1-1.7,2.2,5.78,5.78,0,0,1-4-.53,2.15,2.15,0,0,1-1.26-1.9c0-.17-.08-.23-.25-.23-.68,0-.58-.07-.59.55V19a11,11,0,0,1-.4,3.22,2.57,2.57,0,0,0-.15,1.2,4.82,4.82,0,0,1-.41,2.27,11.7,11.7,0,0,1-2.24,3.68c-.19.22-.2.4,0,.57a6,6,0,0,0,5.73,1.4,4.14,4.14,0,0,0,2.59-1.63,13.84,13.84,0,0,0,1.9-3.23c.9-2.37,1.74-4.77,2.6-7.15a.6.6,0,0,0,0-.19Zm-.92-4.58a4.9,4.9,0,0,0,1.19-.11,5.63,5.63,0,0,0,2.69-1.06,2.3,2.3,0,0,0,.64-3.19,1.84,1.84,0,0,0-.17-.22,4.82,4.82,0,0,0-1.74-1.43,8.92,8.92,0,0,0-5.51-.92A5.31,5.31,0,0,0,105.46,8a2.24,2.24,0,0,0-.47,3.13l0,0a4.5,4.5,0,0,0,.95,1,8.6,8.6,0,0,0,5.24,1.61Zm3.09,2.3a2.68,2.68,0,0,1,.44.45.58.58,0,0,1-.22.73.63.63,0,0,1-.77-.13.62.62,0,0,1,0-.77c.07-.09.18-.2.17-.3,0-.61-.06-1.21-.11-1.82a1.39,1.39,0,0,0-.07-.5,4,4,0,0,1-2.14.63.74.74,0,0,1,0-.21V14a9.17,9.17,0,0,1-5.41-1.46l-.08.07.31.56-.38-.23c-.08.22-.15.4-.21.59v.17c.49.14.49.14.47.66v.06c0,.59,0,.59-.62.55-.15,0-.26,0-.28.18s0,.5-.15.59-.41,0-.63,0h-.19c-.22,0-.32-.09-.29-.32a3.12,3.12,0,0,0,0-.53h-.55a.25.25,0,0,1-.27-.31,4.7,4.7,0,0,0,0-.65c0-.21.1-.3.31-.28a5,5,0,0,0,.55,0,1.84,1.84,0,0,1,0-.54c0-.17.09-.3.31-.28H105c.14-.37,0-.49-.42-.52a.48.48,0,0,0,.48-.71c-.32-.69-.59-.81-1.33-.6l-.27.09a3.41,3.41,0,0,0,1.42,6.61.41.41,0,0,0,.27-.17c.42-1,.9-1.2,1.9-.9a9.32,9.32,0,0,0,3.27.5,1.73,1.73,0,0,1,1.52.68,3.31,3.31,0,0,0,2.52,1.1,3.42,3.42,0,0,0,1.87-6.27c-.44-.29-.43-.29-.82.07-.12.1-.26.17-.39.26a.79.79,0,0,0-.2.94.62.62,0,0,1-.16.86l0,0c-.08,0-.18.12-.2.21a4.86,4.86,0,0,1-.12,1.09Zm-2-9.15a11.37,11.37,0,0,1-.17-1.53,3.62,3.62,0,0,1,1.42-3.07,1.91,1.91,0,0,1,2.7.3,1,1,0,0,1,.08.11A3.37,3.37,0,0,1,117,5a3.69,3.69,0,0,1-1.84,3.53v.08a2.71,2.71,0,0,1,.73,3.57,9.82,9.82,0,0,1,2.44-1.38,1.12,1.12,0,0,0,.47-.47A3.2,3.2,0,0,0,119,8.07c-.25-1-.51-2-.76-3-.2-.76-.34-1.54-.6-2.28a2.26,2.26,0,0,0-1.87-1.5,3.79,3.79,0,0,0-2.54.35,2.6,2.6,0,0,1-3-.34,3.72,3.72,0,0,0-2-.94,2.43,2.43,0,0,0-2.61,1,8.27,8.27,0,0,0-.89,1.42,18.65,18.65,0,0,1-1.52,2.77,3.83,3.83,0,0,0-.72,1.74,1.68,1.68,0,0,0,.79,1.89,3.75,3.75,0,0,1,.71.61c.19.16.36.33.6.55a2.85,2.85,0,0,1,1.68-3l-.08-.1c-1.38-1.22-1.3-4,0-5.38A2,2,0,0,1,109,1.5a1.94,1.94,0,0,1,.67.92,4.16,4.16,0,0,1-.14,3.89l-.16.29Zm-2.91,13.57a2.46,2.46,0,0,0,.73-.08A2.08,2.08,0,0,0,111.89,19a1.28,1.28,0,0,0-.91-1.57,1.24,1.24,0,0,0-.33,0c-.79,0-1.57-.09-2.35-.19a11.73,11.73,0,0,1-1.44-.38,1.08,1.08,0,0,0-1.39.66l0,.09a1.78,1.78,0,0,0-.11.76A2.08,2.08,0,0,0,106.67,20a6.61,6.61,0,0,0,2.66.59ZM116.77,5a3.29,3.29,0,0,0-.43-1.66,1.82,1.82,0,0,0-2.39-1,1.75,1.75,0,0,0-.77.63,3.88,3.88,0,0,0-.66,4,.73.73,0,0,0,.33.32c.51.27,1,.5,1.54.79s.6.32,1.08-.06a4.34,4.34,0,0,0,.52-.53A4,4,0,0,0,116.77,5Zm-6.88-.78a3.48,3.48,0,0,0-.4-1.71,1.81,1.81,0,0,0-3.18-.38,3.84,3.84,0,0,0-.88,3.22,2.74,2.74,0,0,0,.9,1.79.57.57,0,0,0,.38.09c.69-.14,1.39-.29,2.08-.47a.74.74,0,0,0,.42-.26A3.87,3.87,0,0,0,109.89,4.17ZM75.83,28.09A2.91,2.91,0,0,0,76.6,28c.42-.07.39-.08.35-.5-.07-.65-.1-1.31-.14-2v-.71a2.85,2.85,0,0,0-.14-.5,2.37,2.37,0,0,0-.39.32c-.24.3-.5.6-.77.88a1,1,0,0,0-.36.71,8.64,8.64,0,0,1-.09,1C75,28.08,75,28.08,75.83,28.09ZM13.89,32H14a1.14,1.14,0,0,1,.18-.25,12.43,12.43,0,0,1,1-1.16c.37-.34.81-.6,1.22-.91.07-.06.16-.19.14-.25-.13-.34-.29-.67-.45-1a4.1,4.1,0,0,0-2.2,2.95A2.15,2.15,0,0,0,13.89,32Zm89.34-14.42c.12,1.12.24,2.22.36,3.32a1,1,0,0,1-.62,1.19l-.36.2.86.38a2.63,2.63,0,0,0,.15-.35,13.5,13.5,0,0,0,.43-4.33.25.25,0,0,0-.15-.19C103.68,17.71,103.45,17.65,103.23,17.58Zm11.46-4.49a4.22,4.22,0,0,1-.45.18c-.25.07-.3.21-.27.46.06.47.07,1,.1,1.42v.35h.07Zm-9.42,1.31h.09l.6-1.86a.19.19,0,0,0,0-.18c-.16-.14-.34-.27-.56-.44Zm-.84-3.77L103.3,9.46l-.08,0c.08.39.16.78.25,1.17a.24.24,0,0,0,.15.13Zm-62.11,15c.35,0,.57-.14.64-.4s0-.34-.27-.31a1.54,1.54,0,0,0-.43.06.42.42,0,0,0-.32.24C41.94,25.29,42.05,25.63,42.32,25.63Zm74.27-13.08.76-1.14v-.06l-1.31.83ZM95,24.44a2.13,2.13,0,0,0-1.41,0C94.28,25,94.83,24.89,95,24.44Z"/><path d="M11.08,15a10.69,10.69,0,0,1,1.38.34,1.61,1.61,0,0,1,1.13,1.7A3.15,3.15,0,0,1,12,20a2.57,2.57,0,0,1-3.43-1.2,2.87,2.87,0,0,1-.15-.37,2.68,2.68,0,0,1,1.81-3.32A2.53,2.53,0,0,1,11.08,15Zm-.17,4a1.45,1.45,0,0,0-1.63-1.26h0a.29.29,0,0,0-.14.26,2,2,0,0,0,1.23,1.38c.39.15.52.05.52-.38Z"/><path d="M44.44,16.46a7.78,7.78,0,0,1-.18.94,1.66,1.66,0,0,1-1.51,1.31,2.83,2.83,0,0,1-1.55-.16,1.49,1.49,0,0,1-.92-1.6,9.45,9.45,0,0,1,.24-1.31,1.34,1.34,0,0,1,1.17-1.13A6.54,6.54,0,0,1,43,14.4a1.26,1.26,0,0,1,1.19,1A9.07,9.07,0,0,1,44.44,16.46Zm-3.55.64a1.15,1.15,0,0,0,.62,1c.21.08.33,0,.24-.2a7,7,0,0,0-.44-.91.33.33,0,0,0-.27-.12A.43.43,0,0,0,40.89,17.1Z"/><path d="M94.71,18.26a12.75,12.75,0,0,1-1.51-.09A4.81,4.81,0,0,1,92,17.65c-.26-.13-.25-.38-.12-.62a2.89,2.89,0,0,1,3.21-1.28A4.81,4.81,0,0,1,97,17c.35.36.3.59-.13.86a3.33,3.33,0,0,1-1.7.37h-.47Z"/><path d="M58.48,26.33a4.39,4.39,0,0,1-2.3-.74,1.48,1.48,0,0,1-.3-.26.9.9,0,0,1-.1-1.27l.11-.11a1.6,1.6,0,0,1,2.18-.36,3.88,3.88,0,0,1,1.38,1.23,1,1,0,0,1,.12,1.1c-.2.39-.55.43-.92.45Z"/><path d="M116.43,15.7a.55.55,0,0,1-.53.57h-.07a.58.58,0,0,1-.56-.58h0a.58.58,0,0,1,.58-.6h0a.57.57,0,0,1,.57.58Z"/><path d="M112.78,16a.56.56,0,0,1-.58-.52v-.06a.57.57,0,0,1,.54-.59h.05a.58.58,0,0,1,.58.57.58.58,0,0,1-.55.59Z"/><path d="M108.43,14.63c.11.09.22.13.25.21a.87.87,0,0,1,0,.28c-.32.21-.66.41-1,.6,0,0-.21,0-.25-.09s-.07-.27,0-.3A6.74,6.74,0,0,1,108.43,14.63Z"/><path d="M109.41,16c-.11-.11-.23-.16-.24-.23a.43.43,0,0,1,.09-.33,5.16,5.16,0,0,1,.88-.51.31.31,0,0,1,.32.06c.06.06.07.27,0,.3C110.14,15.56,109.78,15.78,109.41,16Z"/><path d="M113.31,7.18a.72.72,0,1,1,0-1.44h0a.72.72,0,0,1,0,1.44Z"/><path d="M109.27,5.87a.72.72,0,0,1-.69.73h0a.73.73,0,0,1-.64-.81.68.68,0,1,1,1.36.08Z"/></g></g></g></g></svg>