<svg xmlns="http://www.w3.org/2000/svg" viewBox="0 0 27.32 32.79"><g id="Layer_2" data-name="Layer 2"><g id="Layer_1-2" data-name="Layer 1"><path d="M27.32,3.48V25.26c-.06.21-.14.4-.18.61A3.81,3.81,0,0,1,24,29.18c-3.75.55-7.48,1.23-11.22,1.86-3.29.56-6.58,1.12-9.87,1.71a1.23,1.23,0,0,1-1.27-.33c-.51-.54-1.11-1-1.67-1.48V3.48a.94.94,0,0,0,.12-.22A3.77,3.77,0,0,1,4,.14C4.41.12,4.78.05,5.15,0H6.7A11.13,11.13,0,0,0,7.79.31L18.32,2ZM18.23,14.63c-.13-.75-.32-2.13-.61-3.48a9.46,9.46,0,0,0-.77-2.36A5.13,5.13,0,0,0,11.67,6,4.86,4.86,0,0,0,7.31,9.38a15.11,15.11,0,0,0-.86,5.11A18.17,18.17,0,0,0,7.28,21,5,5,0,0,0,10,24.28a1.58,1.58,0,0,1,1.2,1.37,2.5,2.5,0,0,0,.26.72,3.19,3.19,0,0,0,3.27,2c1.52,0,1.51-.06,1.52-1.59,0-.52,0-.95-.72-.88a.55.55,0,0,1-.37-.09,4.4,4.4,0,0,1-.8-1c-.2-.44.29-.55.56-.72A5.28,5.28,0,0,0,17,21.74C18,19.68,18.12,17.48,18.23,14.63Zm1.21-2.07v.72c0,2.53,0,5.07,0,7.6a2.36,2.36,0,0,0,1.68,2.6c1.13.38,2.15-.13,3.17-.51a.39.39,0,0,0,.2-.3c0-.54,0-1.08,0-1.69l-.37.11c-1.44.51-1.79.27-1.79-1.25q0-3.21,0-6.44c0-.23,0-.46,0-.75a9.2,9.2,0,0,0,1.4.14.77.77,0,0,0,.57-.4c.31-1.5.07-1.82-1.43-1.87-.47,0-.6-.2-.58-.62s0-.9,0-1.35c0-1.38,0-1.37-1.39-1.4-.43,0-.6.15-.68.56-.1.57-.26,1.12-.39,1.69-.26,1.07,0,1-1.25.87,0,0-.07,0-.17.1v1.11C18.46,12.39,18.46,12.39,19.44,12.56Z"/><path d="M10.37,14.76c.11-1.16.21-2.66.4-4.14a3.13,3.13,0,0,1,.6-1.4,1.4,1.4,0,0,1,2.54.21,8,8,0,0,1,.74,2.63,29.49,29.49,0,0,1-.11,7.45,5.87,5.87,0,0,1-.68,2,1.29,1.29,0,0,1-2.27.2A4.49,4.49,0,0,1,10.64,19C10.49,17.72,10.47,16.41,10.37,14.76Z"/></g></g></svg>