<svg xmlns="http://www.w3.org/2000/svg" viewBox="0 0 32.35 32.02"><g id="Layer_2" data-name="Layer 2"><g id="Layer_1-2" data-name="Layer 1"><path d="M32.35,3.77c-.09,1.37-.19,2.73-.28,4.1l-.18,2.84c-.07,1.1-.15,2.19-.22,3.29l-.18,2.8c-.07,1.12-.15,2.24-.22,3.36l-.18,2.73c0,.47-.05.95-.1,1.43a.35.35,0,0,1-.19.24c-.85.45-1.71.88-2.57,1.32L19.41,30.4,16.35,32A.37.37,0,0,1,16,32l-3.31-1.69L7.46,27.6l-5.93-3a.31.31,0,0,1-.19-.28l-.27-4.17C1,19,.92,17.82.85,16.68c-.09-1.45-.19-2.9-.28-4.35S.38,9.45.28,8L0,4c0-.52,0-.53.48-.64L6.23,2.11l9-1.94c.13,0,.26,0,.38-.08a2.46,2.46,0,0,1,1.37,0c1.6.36,3.21.7,4.81,1l5,1.1c1.79.39,3.58.79,5.37,1.16C32.36,3.48,32.36,3.6,32.35,3.77ZM13.07,16.12l.07,0c-.1-.46-.18-.91-.29-1.36a6.53,6.53,0,0,0-2.64-3.85,11,11,0,0,0-2.7-1.39,5.53,5.53,0,0,0-2.19-.44,2.14,2.14,0,0,0-1.91,1.12,3.85,3.85,0,0,0-.32,2.56A6.5,6.5,0,0,0,5,16.2a16.36,16.36,0,0,0,2.56,2.13,9.69,9.69,0,0,1,1.82,1.5,2.22,2.22,0,0,1,.61,1.58.92.92,0,0,1-1.07.91,2.76,2.76,0,0,1-1.56-.75,4,4,0,0,1-1.23-2.63.27.27,0,0,0-.21-.27l-2.41-.83-.88-.29a2.27,2.27,0,0,0,0,.28,9.18,9.18,0,0,0,.71,2.72,7.52,7.52,0,0,0,1,1.77,7.68,7.68,0,0,0,2.29,1.87A10.78,10.78,0,0,0,10,25.51a3.16,3.16,0,0,0,1.8-.14,2.72,2.72,0,0,0,1.55-2,5.41,5.41,0,0,0,0-2.56,6.4,6.4,0,0,0-1.78-3.17,22.18,22.18,0,0,0-2-1.74c-.8-.63-1.65-1.21-2.48-1.82a1.75,1.75,0,0,1-.66-1,.76.76,0,0,1,.8-1,2.83,2.83,0,0,1,1.42.69,3.22,3.22,0,0,1,1,1.91.39.39,0,0,0,.28.33c.75.25,1.49.52,2.23.78Zm17.8-7.87-.16,0-2.25.85a.31.31,0,0,0-.2.29c-.1.82-.21,1.63-.31,2.45l-.51,3.95c0,.24-.06.48-.1.72h-.07l-1.4-6.42-.27.1c-.69.26-1.37.53-2.06.78a.44.44,0,0,0-.33.39c-.41,2.49-.84,5-1.27,7.45a1,1,0,0,1-.05.16.29.29,0,0,1-.08-.18c-.18-1.26-.35-2.52-.53-3.78-.13-.93-.26-1.87-.38-2.8,0-.17-.09-.2-.24-.14l-2,.77c-.5.19-.41.09-.33.56q.57,3.65,1.17,7.29c.25,1.58.52,3.16.78,4.74,0,.23.06.24.26.14l2.21-1.13a.49.49,0,0,0,.31-.42c.15-.94.31-1.88.48-2.81.32-1.89.65-3.77,1-5.66a.69.69,0,0,1,.05-.13h.05l1.58,7.24.18-.07c.77-.39,1.53-.79,2.3-1.17a.4.4,0,0,0,.25-.35l.39-2.6c.17-1.19.35-2.37.53-3.56.28-1.86.57-3.72.85-5.57C30.75,9,30.81,8.64,30.87,8.25Z"/></g></g></svg>