<svg xmlns="http://www.w3.org/2000/svg" viewBox="0 0 23 29"><g id="Layer_2" data-name="Layer 2"><g id="Layer_1-2" data-name="Layer 1"><path d="M9.28,21.32a2,2,0,0,0-.53-.27A5.36,5.36,0,0,0,8,20.87a4.36,4.36,0,0,1-.55-.14.92.92,0,0,1-.35-.22A.5.5,0,0,1,7,20.16a.46.46,0,0,1,.11-.3.66.66,0,0,1,.31-.21,1.3,1.3,0,0,1,.51-.08,1.43,1.43,0,0,1,.39.06l.4.14A1.56,1.56,0,0,1,9,20a.33.33,0,0,0,.19.06.38.38,0,0,0,.28-.12.41.41,0,0,0,.12-.28.45.45,0,0,0-.21-.37,1.89,1.89,0,0,0-.63-.35,2.55,2.55,0,0,0-.84-.14,2.35,2.35,0,0,0-.89.17,1.54,1.54,0,0,0-.63.49,1.28,1.28,0,0,0-.23.78,1.53,1.53,0,0,0,.09.54,1.25,1.25,0,0,0,.3.42,1.58,1.58,0,0,0,.47.3,3.85,3.85,0,0,0,.67.17,3.09,3.09,0,0,1,.66.15.93.93,0,0,1,.38.25.52.52,0,0,1,.13.36.42.42,0,0,1-.13.31,1.1,1.1,0,0,1-.35.22A1.51,1.51,0,0,1,7.9,23a1.76,1.76,0,0,1-.65-.11,2.85,2.85,0,0,1-.53-.33.35.35,0,0,0-.23-.09.43.43,0,0,0-.41.41.53.53,0,0,0,0,.2.55.55,0,0,0,.14.17,2,2,0,0,0,.75.43,3,3,0,0,0,.88.12,2.21,2.21,0,0,0,.89-.17,1.68,1.68,0,0,0,.66-.51,1.22,1.22,0,0,0,.25-.78,1.71,1.71,0,0,0-.1-.6A1.12,1.12,0,0,0,9.28,21.32Z"/><path d="M15,23.93a.37.37,0,0,0-.21.08l-.21.16a1,1,0,0,1-.23.14.73.73,0,0,1-.32.06,1,1,0,0,1-.4-.07l-.35-.16A2,2,0,0,0,13,24a2.16,2.16,0,0,0-.27,0l.49-.18a2,2,0,0,0,.41-.13,2.25,2.25,0,0,0,.75-.54,2.46,2.46,0,0,0,.5-.8,2.88,2.88,0,0,0,.17-1,2.84,2.84,0,0,0-.17-1,2.36,2.36,0,0,0-.5-.8,2.43,2.43,0,0,0-.75-.55,2.32,2.32,0,0,0-1-.19,2.27,2.27,0,0,0-1,.19,2.43,2.43,0,0,0-.75.55,2.52,2.52,0,0,0-.5.8,2.84,2.84,0,0,0-.17,1,2.88,2.88,0,0,0,.17,1,2.64,2.64,0,0,0,.5.8,2.25,2.25,0,0,0,.75.54,2.16,2.16,0,0,0,.43.14l-.7.26a.35.35,0,0,0-.24.36.42.42,0,0,0,.12.29.37.37,0,0,0,.29.13.7.7,0,0,0,.27,0l.17-.09a.43.43,0,0,1,.21-.05.8.8,0,0,1,.36.08l.32.19a2.93,2.93,0,0,0,.42.18,2.61,2.61,0,0,0,.69.08,1.78,1.78,0,0,0,.44-.06,3.8,3.8,0,0,0,.47-.18,1.29,1.29,0,0,0,.37-.26.42.42,0,0,0,.14-.3.35.35,0,0,0-.13-.28A.39.39,0,0,0,15,23.93Zm-3.69-1.79a2.12,2.12,0,0,1,0-1.71,1.6,1.6,0,0,1,.52-.6,1.31,1.31,0,0,1,.76-.22,1.34,1.34,0,0,1,.77.22,1.49,1.49,0,0,1,.51.6,2,2,0,0,1,0,1.71,1.49,1.49,0,0,1-.51.6,1.34,1.34,0,0,1-.77.23,1.31,1.31,0,0,1-.76-.23A1.6,1.6,0,0,1,11.35,22.14Z"/><path d="M18.49,22.92H16.67V19.26a.42.42,0,0,0-.13-.3.46.46,0,0,0-.62,0,.38.38,0,0,0-.13.3v4a.41.41,0,0,0,.12.3.4.4,0,0,0,.31.13h2.27a.43.43,0,0,0,.31-.12.37.37,0,0,0,.12-.29.41.41,0,0,0-.12-.3A.47.47,0,0,0,18.49,22.92Z"/><path d="M21.47,16H21V6.58a3,3,0,0,0-.23-1.13.44.44,0,0,0-.11-.27A1.76,1.76,0,0,0,20.52,5a1.29,1.29,0,0,0-.09-.16,2.57,2.57,0,0,0-.34-.4L16.61.91a2.85,2.85,0,0,0-.9-.62h0A3.09,3.09,0,0,0,14.42,0H1.72A1.72,1.72,0,0,0,0,1.72V27.28A1.72,1.72,0,0,0,1.72,29H19.28A1.72,1.72,0,0,0,21,27.28V27h.47A1.54,1.54,0,0,0,23,25.47V17.53A1.54,1.54,0,0,0,21.47,16ZM19.29,5H16.5a.5.5,0,0,1-.5-.5V1.71ZM20,27.28a.72.72,0,0,1-.72.72H1.72A.72.72,0,0,1,1,27.28V1.72A.72.72,0,0,1,1.72,1h12.7a1.91,1.91,0,0,1,.58.1V4.5A1.5,1.5,0,0,0,16.5,6h3.41a2.26,2.26,0,0,1,.09.58V16H11.93a.58.58,0,0,1-.38-.15l-.4-.4A1.51,1.51,0,0,0,10.07,15H3.53A1.54,1.54,0,0,0,2,16.53v8.94A1.54,1.54,0,0,0,3.53,27H20Zm2-1.81a.53.53,0,0,1-.53.53H3.53A.53.53,0,0,1,3,25.47V16.53A.53.53,0,0,1,3.53,16h6.54a.58.58,0,0,1,.38.15l.4.4a1.5,1.5,0,0,0,1.08.45h9.54a.53.53,0,0,1,.53.53Z"/><path d="M7.94,14c.75,0,4.5-.07,4.5-1.5v-9c0-1.43-3.75-1.5-4.5-1.5s-4.5.07-4.5,1.5v9C3.44,13.93,7.19,14,7.94,14Zm3.5-1.59a7.34,7.34,0,0,1-3.5.59,7.3,7.3,0,0,1-3.5-.59V10.52l.08,0,.31.1.13,0a6.8,6.8,0,0,0,.92.18l.14,0,.34,0h.13l.43,0h0l.39,0H8.57L9,11H9l.43,0h.12l.35,0,.14,0a7.12,7.12,0,0,0,.92-.18l.13,0,.31-.1.08,0v1.89ZM4.83,4.65l.13,0a6.8,6.8,0,0,0,.92.18l.14,0,.34,0h.13l.42,0h0l.39,0H8.57L9,5H9l.43,0h.12l.35,0,.14,0a7.12,7.12,0,0,0,.92-.18l.13,0,.31-.1.08,0V6.41s0,0,0,0l-.09,0-.1,0-.13,0-.16,0-.15.05-.23,0-.17,0-.3,0-.19,0-.35,0-.22,0L8.88,7H8.66L7.94,7,7.22,7H7l-.43,0-.21,0L6,6.87l-.19,0-.29,0-.18,0-.22,0L5,6.65,4.8,6.59a.43.43,0,0,1-.12,0l-.1,0-.09,0,0,0V4.52l.08,0Zm0,3,.13,0a6.8,6.8,0,0,0,.92.18l.14,0,.34,0h.13l.42,0h0l.39,0H8.57L9,8H9l.43,0h.12l.35,0,.14,0a7.12,7.12,0,0,0,.92-.18l.13,0,.31-.1.08,0V9.41l0,0-.09.05-.1,0-.13.05-.16.05-.15,0-.23.05-.17,0-.29.06-.2,0-.35,0-.21,0-.43,0H8.66l-.72,0-.72,0H7l-.43,0-.21,0L6,9.87l-.19,0-.29-.06-.18,0-.22-.05L5,9.64,4.8,9.59a.43.43,0,0,1-.12-.05l-.1,0-.09-.06,0,0V7.52l.08,0ZM11.3,3.5l-.22.09h0l-.29.09-.08,0-.29.07-.13,0L10,3.85l-.17,0-.36,0-.2,0C9.11,4,9,4,8.82,4l-.2,0H7.94L7.25,4h-.2l-.42,0-.2,0-.35,0-.17,0L5.59,3.8l-.13,0L5.17,3.7l-.08,0a2.76,2.76,0,0,1-.52-.18A8.71,8.71,0,0,1,7.94,3,8.61,8.61,0,0,1,11.3,3.5Z"/><path d="M9.8,11.32,9,11.4a.5.5,0,0,0-.44.55.49.49,0,0,0,.49.45h.06l.79-.08a.5.5,0,0,0-.11-1Z"/><path d="M6.86,11.4l-.79-.08a.5.5,0,0,0-.55.45.52.52,0,0,0,.45.55l.79.08h0a.5.5,0,0,0,.05-1Z"/><path d="M9.06,9.41h0l.79-.08a.5.5,0,1,0-.1-1L9,8.42a.5.5,0,0,0,.05,1Z"/><path d="M6,9.33l.79.08h0A.51.51,0,0,0,7.31,9a.49.49,0,0,0-.45-.54l-.79-.08a.5.5,0,0,0-.55.44A.51.51,0,0,0,6,9.33Z"/><path d="M9.06,6.43h0l.79-.08a.5.5,0,1,0-.1-1L9,5.43A.5.5,0,0,0,8.57,6,.49.49,0,0,0,9.06,6.43Z"/><path d="M6,6.34l.79.08h0A.51.51,0,0,0,7.31,6a.5.5,0,0,0-.45-.55l-.79-.08a.5.5,0,1,0-.1,1Z"/></g></g></svg>