<svg xmlns="http://www.w3.org/2000/svg" viewBox="0 0 221.09 138.44"><g id="Layer_2" data-name="Layer 2"><g id="Layer_1-2" data-name="Layer 1"><g id="Layer_2-2" data-name="Layer 2"><g id="Layer_1-2-2" data-name="Layer 1-2"><path d="M127.45,138.44c3.19-7.91,6.25-15.87,9.61-23.71,5.86-13.64,11.95-27.2,17.87-40.82q5.17-12,10.16-24c1.19-2.83,3-4.13,6.26-4,8.45.21,16.91.06,25.37.08,1.2,0,2.39.17,4.29.32-2.58,6-4.91,11.58-7.31,17.09q-7,16.2-14.14,32.34c-5.47,12.46-11,24.9-16.41,37.39a32.34,32.34,0,0,0-1.32,5.3Z"/><path d="M81.1,138.44C84,136.22,87,134,89.89,131.77c7.6-5.8,10.88-13.72,11.8-23,1.42-14.47-6.3-24-16.58-32.56-4.86-4-9.06-8.86-13.59-13.3-2.82-2.77-5.93-5.29-8.46-8.3s-1.39-6.49,2.44-7.84A15.56,15.56,0,0,1,70.62,46Q102,46,133.39,46c4.81,0,4.9.37,3,4.84C131.2,62.81,126.18,74.82,121,86.76c-4.4,10.06-8.87,20.18-13.3,30.18q-4.71,10.74-9.43,21.47Z"/><path d="M221.09,0c-2.79,6.31-5.1,11.76-7.64,17.09a4.75,4.75,0,0,1-2.94,1.81,16.89,16.89,0,0,1-4.08.13c-46.2,0-92.4-.31-138.59.16-17.46.21-29,9.81-32.46,25.91C33,56.35,36.13,66.82,44.8,75s17.35,16.33,26,24.51a9.69,9.69,0,0,1,2.64,3.09c.76,1.95,2,4.61,1.2,6A7.56,7.56,0,0,1,69,112c-22.28.23-44.57.14-66.86.13A14.36,14.36,0,0,1,0,111.74a15.07,15.07,0,0,1,.69-2.8C5.3,98.37,10,87.84,14.59,77.27Q26.67,49.48,38.66,21.63c2.73-6.37,5.19-12.85,8-19.18C47.13,1.39,48.72.73,49.92.13c.6-.3,1.47,0,2.22,0h169Z"/></g></g></g></g></svg>